<svg width="148" height="150" viewBox="0 0 148 150" fill="none" xmlns="http://www.w3.org/2000/svg">
<path d="M147.882 111.451H147.929V146.555C147.929 148.457 146.386 150 144.484 150C143.953 150 143.449 149.88 143 149.665L142.993 149.676L142.928 149.628C142.604 149.464 142.309 149.252 142.054 148.998L115.596 129.904L106.152 143.983L84.0803 111.504L89.7795 107.631L106.115 131.669L113.845 120.144L141.038 139.767V125.593L96.6086 71.3516L67.5237 128.294L53.1487 108.655L34.2698 148.002L23.1213 137.803L5.33228 147.968C4.26602 148.577 2.95593 148.572 1.8938 147.956C0.831735 147.34 0.178055 146.205 0.177979 144.977V0.106491H147.882V111.451ZM7.0686 115.345L49.6858 48.7666L73.6985 84.1622L67.9963 88.0303L49.8538 61.2862L7.0686 128.126V139.04L24.0657 129.327L32.0735 136.653L51.9133 95.3018L66.4758 115.197L95.2639 58.836L140.991 114.662V6.99712H7.0686V115.345Z" fill="#E80000"/>
</svg>
