<svg width="473" height="117" viewBox="0 0 473 117" fill="none" xmlns="http://www.w3.org/2000/svg">
<path d="M168.849 9.35556C169.105 8.84476 169.554 8.58936 170.195 8.58936H179.139C179.459 8.58936 179.716 8.71706 179.908 8.97246C180.164 9.16401 180.293 9.41941 180.293 9.73867V74.4833C180.293 74.8026 180.164 75.0899 179.908 75.3453C179.716 75.5368 179.459 75.6326 179.139 75.6326H170.291C169.971 75.6326 169.682 75.5368 169.426 75.3453C169.233 75.0899 169.137 74.8026 169.137 74.4833V29.0854C169.137 28.83 169.073 28.7023 168.945 28.7023C168.817 28.6385 168.688 28.7023 168.56 28.8939L158.367 45.6547C158.11 46.1655 157.661 46.4209 157.02 46.4209H155.193C154.552 46.4209 154.103 46.1655 153.847 45.6547L143.653 28.9897C143.525 28.7981 143.397 28.7343 143.268 28.7981C143.14 28.7981 143.076 28.9258 143.076 29.1812V74.4833C143.076 74.8026 142.948 75.0899 142.691 75.3453C142.499 75.5368 142.243 75.6326 141.922 75.6326H133.075C132.754 75.6326 132.466 75.5368 132.209 75.3453C132.017 75.0899 131.921 74.8026 131.921 74.4833V9.73867C131.921 9.41941 132.017 9.16401 132.209 8.97246C132.466 8.71706 132.754 8.58936 133.075 8.58936H141.922C142.563 8.58936 143.012 8.84476 143.268 9.35556L155.866 29.3728C156.059 29.7559 156.251 29.7559 156.443 29.3728L168.849 9.35556ZM205.965 76.3988C200.772 76.3988 196.508 75.026 193.174 72.2805C189.841 69.471 187.821 65.7038 187.116 60.9789C186.603 57.914 186.347 54.6257 186.347 51.1139C186.347 47.4745 186.603 44.1223 187.116 41.0575C187.821 36.3964 189.873 32.7249 193.271 30.0432C196.668 27.2976 200.932 25.9248 206.061 25.9248C211.126 25.9248 215.325 27.2976 218.659 30.0432C221.992 32.7249 224.012 36.3644 224.717 40.9617C225.23 44.1542 225.486 47.5064 225.486 51.0182C225.486 54.8492 225.262 58.1375 224.813 60.8831C224.108 65.6719 222.089 69.471 218.755 72.2805C215.421 75.026 211.158 76.3988 205.965 76.3988ZM205.965 66.8212C208.08 66.8212 209.843 66.1189 211.254 64.7142C212.728 63.3094 213.626 61.4578 213.946 59.1591C214.203 55.8389 214.331 53.1572 214.331 51.1139C214.331 49.0069 214.203 46.2932 213.946 42.973C213.626 40.6744 212.728 38.8546 211.254 37.5137C209.843 36.1729 208.08 35.5024 205.965 35.5024C203.785 35.5024 201.99 36.1729 200.579 37.5137C199.169 38.8546 198.303 40.6744 197.983 42.973C197.726 45.2078 197.598 47.9214 197.598 51.1139C197.598 54.3703 197.726 57.0521 197.983 59.1591C198.303 61.4578 199.169 63.3094 200.579 64.7142C201.99 66.1189 203.785 66.8212 205.965 66.8212ZM256.475 27.8404C256.475 27.5211 256.571 27.2657 256.763 27.0741C257.02 26.8187 257.308 26.691 257.629 26.691H266.476C266.796 26.691 267.053 26.8187 267.245 27.0741C267.502 27.2657 267.63 27.5211 267.63 27.8404V74.4833C267.63 74.8026 267.502 75.0899 267.245 75.3453C267.053 75.5368 266.796 75.6326 266.476 75.6326H257.629C257.308 75.6326 257.02 75.5368 256.763 75.3453C256.571 75.0899 256.475 74.8026 256.475 74.4833V71.8974C256.475 71.7058 256.41 71.61 256.282 71.61C256.154 71.5462 256.026 71.61 255.898 71.8016C253.718 74.8026 250.288 76.3031 245.608 76.3031C241.248 76.3031 237.626 75.026 234.741 72.472C231.856 69.8541 230.413 66.055 230.413 61.0747V27.8404C230.413 27.5211 230.51 27.2657 230.702 27.0741C230.958 26.8187 231.247 26.691 231.567 26.691H240.415C240.735 26.691 240.992 26.8187 241.184 27.0741C241.441 27.2657 241.569 27.5211 241.569 27.8404V58.2972C241.569 60.9789 242.178 63.086 243.396 64.6184C244.678 66.0869 246.505 66.8212 248.877 66.8212C251.25 66.8212 253.109 66.055 254.455 64.5226C255.801 62.9263 256.475 60.7873 256.475 58.1056V27.8404ZM296.409 25.9248C301.089 25.9248 304.743 27.3934 307.372 30.3305C310.001 33.2677 311.315 37.3222 311.315 42.4941V74.4833C311.315 74.8026 311.187 75.0899 310.93 75.3453C310.738 75.5368 310.481 75.6326 310.161 75.6326H301.313C300.993 75.6326 300.704 75.5368 300.448 75.3453C300.256 75.0899 300.159 74.8026 300.159 74.4833V44.0265C300.159 41.4086 299.486 39.3335 298.14 37.8011C296.858 36.2686 295.095 35.5024 292.851 35.5024C290.543 35.5024 288.684 36.3006 287.273 37.8968C285.927 39.4293 285.254 41.5044 285.254 44.1223V74.4833C285.254 74.8026 285.125 75.0899 284.869 75.3453C284.677 75.5368 284.42 75.6326 284.1 75.6326H275.252C274.932 75.6326 274.643 75.5368 274.387 75.3453C274.194 75.0899 274.098 74.8026 274.098 74.4833V27.8404C274.098 27.5211 274.194 27.2657 274.387 27.0741C274.643 26.8187 274.932 26.691 275.252 26.691H284.1C284.42 26.691 284.677 26.8187 284.869 27.0741C285.125 27.2657 285.254 27.5211 285.254 27.8404V30.3305C285.254 30.5221 285.318 30.6498 285.446 30.7136C285.574 30.7775 285.702 30.7136 285.831 30.5221C288.395 27.4572 291.921 25.9248 296.409 25.9248ZM340.763 33.97C340.763 34.2893 340.635 34.5766 340.379 34.832C340.186 35.0236 339.93 35.1193 339.609 35.1193H331.82C331.499 35.1193 331.339 35.279 331.339 35.5982V59.638C331.339 62.0005 331.788 63.6925 332.685 64.7142C333.647 65.6719 335.121 66.1189 337.109 66.055H338.84C339.16 66.055 339.417 66.1827 339.609 66.4381C339.866 66.6297 339.994 66.8851 339.994 67.2043V74.4833C339.994 75.1857 339.609 75.6007 338.84 75.7284H334.801C330.057 75.7284 326.498 74.8983 324.126 73.2382C321.754 71.5781 320.568 68.4494 320.568 63.8522V35.5982C320.568 35.279 320.408 35.1193 320.087 35.1193H315.664C315.343 35.1193 315.055 35.0236 314.798 34.832C314.606 34.5766 314.51 34.2893 314.51 33.97V27.8404C314.51 27.5211 314.606 27.2657 314.798 27.0741C315.055 26.8187 315.343 26.691 315.664 26.691H320.087C320.408 26.691 320.568 26.5314 320.568 26.2122V15.2937C320.568 14.9744 320.664 14.719 320.857 14.5275C321.113 14.2721 321.402 14.1444 321.722 14.1444H330.185C330.505 14.1444 330.762 14.2721 330.954 14.5275C331.211 14.719 331.339 14.9744 331.339 15.2937V26.2122C331.339 26.5314 331.499 26.691 331.82 26.691H339.609C339.93 26.691 340.186 26.8187 340.379 27.0741C340.635 27.2657 340.763 27.5211 340.763 27.8404V33.97ZM388.088 57.2436C388.088 63.1817 386.197 67.7471 382.414 70.9396C378.696 74.0683 373.823 75.6326 367.797 75.6326H347.313C346.993 75.6326 346.704 75.5368 346.448 75.3453C346.255 75.0899 346.159 74.8026 346.159 74.4833V9.73867C346.159 9.41941 346.255 9.16401 346.448 8.97246C346.704 8.71706 346.993 8.58936 347.313 8.58936H366.643C373.118 8.58936 378.151 10.1218 381.741 13.1866C385.395 16.1876 387.222 20.6891 387.222 26.691C387.222 33.2677 384.626 37.9288 379.433 40.6744C379.112 40.8659 379.08 41.0575 379.337 41.249C385.171 44.3777 388.088 49.7092 388.088 57.2436ZM357.795 18.167C357.475 18.167 357.315 18.3266 357.315 18.6458V36.4602C357.315 36.7795 357.475 36.9391 357.795 36.9391H366.739C369.752 36.9391 372.092 36.1409 373.759 34.5447C375.49 32.8846 376.356 30.5859 376.356 27.6488C376.356 24.6478 375.49 22.3173 373.759 20.6571C372.092 18.997 369.752 18.167 366.739 18.167H357.795ZM367.412 65.9592C370.361 65.9592 372.669 65.0653 374.336 63.2775C376.067 61.4897 376.933 58.9995 376.933 55.807C376.933 52.6144 376.067 50.1243 374.336 48.3364C372.605 46.4848 370.265 45.5589 367.316 45.5589H357.795C357.475 45.5589 357.315 45.7186 357.315 46.0378V65.4804C357.315 65.7996 357.475 65.9592 357.795 65.9592H367.412ZM411.841 76.3988C406.648 76.3988 402.385 75.026 399.051 72.2805C395.717 69.471 393.698 65.7038 392.992 60.9789C392.48 57.914 392.223 54.6257 392.223 51.1139C392.223 47.4745 392.48 44.1223 392.992 41.0575C393.698 36.3964 395.749 32.7249 399.147 30.0432C402.545 27.2976 406.808 25.9248 411.937 25.9248C417.002 25.9248 421.201 27.2976 424.535 30.0432C427.869 32.7249 429.888 36.3644 430.594 40.9617C431.107 44.1542 431.363 47.5064 431.363 51.0182C431.363 54.8492 431.139 58.1375 430.69 60.8831C429.985 65.6719 427.965 69.471 424.631 72.2805C421.298 75.026 417.034 76.3988 411.841 76.3988ZM411.841 66.8212C413.957 66.8212 415.72 66.1189 417.13 64.7142C418.605 63.3094 419.502 61.4578 419.823 59.1591C420.079 55.8389 420.208 53.1572 420.208 51.1139C420.208 49.0069 420.079 46.2932 419.823 42.973C419.502 40.6744 418.605 38.8546 417.13 37.5137C415.72 36.1729 413.957 35.5024 411.841 35.5024C409.661 35.5024 407.866 36.1729 406.456 37.5137C405.045 38.8546 404.18 40.6744 403.859 42.973C403.603 45.2078 403.475 47.9214 403.475 51.1139C403.475 54.3703 403.603 57.0521 403.859 59.1591C404.18 61.4578 405.045 63.3094 406.456 64.7142C407.866 66.1189 409.661 66.8212 411.841 66.8212ZM432.87 75.6326C432.421 75.6326 432.1 75.5049 431.908 75.2495C431.716 74.9941 431.748 74.6749 432.004 74.2918L445.467 51.4013C445.596 51.2097 445.596 51.0182 445.467 50.8266L432.004 28.0319L431.812 27.4572C431.812 26.9464 432.164 26.691 432.87 26.691H442.294C442.999 26.691 443.48 26.9464 443.737 27.4572L451.815 41.3448C452.007 41.7279 452.199 41.7279 452.392 41.3448L460.277 27.4572C460.598 26.9464 461.079 26.691 461.72 26.691H471.625C472.074 26.691 472.394 26.8187 472.587 27.0741C472.779 27.3295 472.747 27.6488 472.49 28.0319L459.027 50.8266C458.963 51.0182 458.963 51.2097 459.027 51.4013L472.49 74.2918L472.683 74.8664C472.683 75.3772 472.33 75.6326 471.625 75.6326H462.104C461.463 75.6326 460.982 75.3772 460.662 74.8664L452.68 60.7873C452.488 60.4681 452.295 60.4681 452.103 60.7873L444.121 74.8664C443.801 75.3772 443.32 75.6326 442.679 75.6326H432.87Z" fill="white"/>
<path opacity="0.7" d="M136.28 88.6605C138.256 88.6605 139.984 89.0417 141.462 89.8045C142.958 90.5494 144.106 91.6314 144.908 93.0502C145.727 94.4515 146.137 96.0919 146.137 97.9721C146.137 99.8522 145.727 101.484 144.908 102.867C144.106 104.251 142.958 105.315 141.462 106.06C139.984 106.787 138.256 107.151 136.28 107.151H130.216V88.6605H136.28ZM136.28 104.676C138.452 104.676 140.117 104.091 141.275 102.92C142.433 101.75 143.011 100.1 143.011 97.9721C143.011 95.8259 142.433 94.1498 141.275 92.9438C140.117 91.7378 138.452 91.1347 136.28 91.1347H133.261V104.676H136.28ZM162.645 99.4619C162.645 100.012 162.61 100.508 162.538 100.952H151.292C151.381 102.122 151.817 103.062 152.601 103.772C153.384 104.481 154.346 104.836 155.486 104.836C157.124 104.836 158.282 104.153 158.959 102.787H162.244C161.799 104.136 160.989 105.244 159.813 106.113C158.656 106.964 157.213 107.39 155.486 107.39C154.079 107.39 152.815 107.08 151.693 106.459C150.589 105.82 149.716 104.934 149.075 103.798C148.452 102.646 148.14 101.315 148.14 99.8078C148.14 98.3001 148.443 96.9789 149.048 95.8437C149.671 94.6909 150.535 93.8039 151.639 93.1833C152.761 92.5626 154.043 92.2521 155.486 92.2521C156.875 92.2521 158.113 92.5535 159.199 93.1566C160.285 93.7598 161.131 94.6111 161.737 95.7107C162.342 96.7927 162.645 98.0431 162.645 99.4619ZM159.466 98.5042C159.448 97.3868 159.048 96.491 158.264 95.8171C157.481 95.1432 156.51 94.8061 155.352 94.8061C154.302 94.8061 153.402 95.1432 152.654 95.8171C151.906 96.4734 151.461 97.3689 151.319 98.5042H159.466ZM170.985 107.39C169.827 107.39 168.785 107.186 167.859 106.778C166.951 106.352 166.23 105.785 165.695 105.075C165.161 104.348 164.876 103.541 164.841 102.654H167.993C168.046 103.275 168.34 103.798 168.874 104.224C169.426 104.632 170.112 104.836 170.931 104.836C171.786 104.836 172.445 104.676 172.908 104.357C173.389 104.02 173.629 103.594 173.629 103.08C173.629 102.53 173.362 102.122 172.828 101.856C172.311 101.59 171.483 101.298 170.343 100.978C169.239 100.677 168.34 100.384 167.645 100.1C166.951 99.8165 166.345 99.3821 165.829 98.7968C165.33 98.2115 165.081 97.44 165.081 96.4822C165.081 95.7019 165.312 94.9924 165.776 94.3539C166.238 93.6975 166.897 93.1833 167.752 92.8108C168.625 92.4383 169.622 92.2521 170.744 92.2521C172.418 92.2521 173.763 92.6778 174.778 93.5291C175.811 94.3626 176.363 95.5066 176.434 96.9611H173.389C173.335 96.3048 173.068 95.7817 172.587 95.3914C172.107 95.0011 171.456 94.8061 170.637 94.8061C169.836 94.8061 169.222 94.957 168.794 95.2584C168.367 95.5598 168.153 95.9589 168.153 96.4556C168.153 96.8459 168.295 97.1739 168.58 97.44C168.865 97.706 169.212 97.9189 169.622 98.0785C170.032 98.2203 170.637 98.4065 171.439 98.6372C172.507 98.921 173.38 99.2137 174.057 99.5151C174.751 99.799 175.348 100.225 175.846 100.792C176.345 101.36 176.603 102.114 176.621 103.054C176.621 103.887 176.389 104.632 175.926 105.288C175.463 105.945 174.805 106.459 173.95 106.831C173.113 107.204 172.124 107.39 170.985 107.39ZM181.461 90.5494C180.909 90.5494 180.446 90.3632 180.072 89.9907C179.698 89.6183 179.511 89.1572 179.511 88.6073C179.511 88.0574 179.698 87.5963 180.072 87.2239C180.446 86.8514 180.909 86.6652 181.461 86.6652C181.995 86.6652 182.449 86.8514 182.823 87.2239C183.197 87.5963 183.384 88.0574 183.384 88.6073C183.384 89.1572 183.197 89.6183 182.823 89.9907C182.449 90.3632 181.995 90.5494 181.461 90.5494ZM182.957 92.4915V107.151H179.912V92.4915H182.957ZM192.885 92.2521C194.025 92.2521 195.031 92.4828 195.904 92.9438C196.794 93.3873 197.489 93.946 197.987 94.6199V92.4915H201.059V107.39C201.059 108.738 200.774 109.935 200.205 110.982C199.635 112.046 198.806 112.879 197.72 113.482C196.652 114.086 195.37 114.387 193.874 114.387C191.879 114.387 190.223 113.917 188.905 112.977C187.587 112.055 186.839 110.795 186.661 109.199H189.68C189.911 109.962 190.401 110.574 191.149 111.035C191.914 111.514 192.823 111.753 193.874 111.753C195.102 111.753 196.091 111.381 196.839 110.636C197.604 109.891 197.987 108.809 197.987 107.39V104.942C197.471 105.634 196.767 106.219 195.877 106.698C195.004 107.159 194.007 107.39 192.885 107.39C191.603 107.39 190.428 107.071 189.359 106.432C188.308 105.776 187.471 104.871 186.848 103.719C186.243 102.548 185.94 101.227 185.94 99.7546C185.94 98.2825 186.243 96.9789 186.848 95.8437C187.471 94.7085 188.308 93.8305 189.359 93.2099C190.428 92.5714 191.603 92.2521 192.885 92.2521ZM197.987 99.8078C197.987 98.7968 197.774 97.9189 197.346 97.1739C196.937 96.429 196.393 95.8615 195.717 95.4712C195.04 95.081 194.31 94.8859 193.526 94.8859C192.743 94.8859 192.013 95.081 191.336 95.4712C190.659 95.8437 190.107 96.4024 189.68 97.1473C189.27 97.8744 189.065 98.7436 189.065 99.7546C189.065 100.766 189.27 101.652 189.68 102.415C190.107 103.178 190.659 103.763 191.336 104.171C192.03 104.561 192.76 104.756 193.526 104.756C194.31 104.756 195.04 104.561 195.717 104.171C196.393 103.781 196.937 103.213 197.346 102.468C197.774 101.705 197.987 100.819 197.987 99.8078ZM212.485 92.2521C213.643 92.2521 214.676 92.4915 215.584 92.9704C216.51 93.4493 217.231 94.1588 217.748 95.0988C218.264 96.0387 218.523 97.1739 218.523 98.5042V107.151H215.504V98.9564C215.504 97.644 215.175 96.6418 214.516 95.9501C213.857 95.2406 212.957 94.8859 211.818 94.8859C210.678 94.8859 209.77 95.2406 209.093 95.9501C208.434 96.6418 208.104 97.644 208.104 98.9564V107.151H205.059V92.4915H208.104V94.1676C208.603 93.5645 209.235 93.0947 210.001 92.7576C210.785 92.4205 211.613 92.2521 212.485 92.2521ZM235.463 107.337C234.217 107.337 233.095 107.124 232.098 106.698C231.1 106.255 230.317 105.634 229.747 104.836C229.177 104.038 228.892 103.107 228.892 102.043H232.151C232.222 102.841 232.534 103.497 233.086 104.011C233.656 104.526 234.448 104.783 235.463 104.783C236.514 104.783 237.333 104.535 237.921 104.038C238.509 103.524 238.803 102.867 238.803 102.069C238.803 101.448 238.616 100.943 238.242 100.553C237.885 100.162 237.431 99.861 236.879 99.6481C236.345 99.4353 235.597 99.2046 234.635 98.9564C233.424 98.6372 232.436 98.3179 231.67 97.9987C230.922 97.6616 230.281 97.1473 229.747 96.4556C229.213 95.7639 228.945 94.8415 228.945 93.6887C228.945 92.6246 229.213 91.6934 229.747 90.8953C230.281 90.0971 231.029 89.4852 231.991 89.0596C232.952 88.6339 234.065 88.4211 235.33 88.4211C237.128 88.4211 238.598 88.8733 239.737 89.7779C240.895 90.6646 241.536 91.8884 241.661 93.4493H238.295C238.242 92.7754 237.921 92.1989 237.333 91.72C236.746 91.2411 235.971 91.0017 235.009 91.0017C234.137 91.0017 233.424 91.2233 232.872 91.6668C232.32 92.1103 232.044 92.7488 232.044 93.5823C232.044 94.1498 232.213 94.6199 232.552 94.9924C232.908 95.347 233.353 95.6309 233.887 95.8437C234.422 96.0565 235.152 96.2872 236.078 96.5354C237.307 96.8725 238.304 97.2093 239.07 97.5464C239.853 97.8835 240.512 98.4065 241.046 99.1161C241.599 99.8078 241.875 100.739 241.875 101.91C241.875 102.849 241.616 103.736 241.1 104.57C240.601 105.403 239.862 106.078 238.883 106.592C237.921 107.089 236.781 107.337 235.463 107.337ZM249.021 94.9658V103.08C249.021 103.63 249.145 104.029 249.395 104.277C249.662 104.508 250.107 104.623 250.73 104.623H252.6V107.151H250.196C248.825 107.151 247.774 106.831 247.044 106.193C246.314 105.554 245.949 104.517 245.949 103.08V94.9658H244.212V92.4915H245.949V88.8467H249.021V92.4915H252.6V94.9658H249.021ZM268.737 92.4915V107.151H265.692V105.421C265.211 106.024 264.578 106.503 263.795 106.858C263.029 107.195 262.21 107.363 261.337 107.363C260.18 107.363 259.138 107.124 258.212 106.645C257.304 106.166 256.582 105.457 256.048 104.517C255.532 103.577 255.274 102.442 255.274 101.111V92.4915H258.292V100.659C258.292 101.972 258.621 102.982 259.28 103.692C259.939 104.384 260.839 104.73 261.978 104.73C263.118 104.73 264.017 104.384 264.676 103.692C265.353 102.982 265.692 101.972 265.692 100.659V92.4915H268.737ZM271.74 99.7546C271.74 98.2825 272.042 96.9789 272.648 95.8437C273.27 94.7085 274.109 93.8305 275.159 93.2099C276.227 92.5714 277.411 92.2521 278.712 92.2521C279.673 92.2521 280.616 92.4649 281.543 92.8906C282.486 93.2985 283.234 93.8484 283.787 94.5401V87.4633H286.859V107.151H283.787V104.942C283.288 105.652 282.593 106.237 281.704 106.698C280.83 107.159 279.826 107.39 278.685 107.39C277.403 107.39 276.227 107.071 275.159 106.432C274.109 105.776 273.27 104.871 272.648 103.719C272.042 102.548 271.74 101.227 271.74 99.7546ZM283.787 99.8078C283.787 98.7968 283.574 97.9189 283.146 97.1739C282.737 96.429 282.192 95.8615 281.517 95.4712C280.841 95.081 280.109 94.8859 279.326 94.8859C278.543 94.8859 277.812 95.081 277.136 95.4712C276.46 95.8437 275.907 96.4024 275.479 97.1473C275.071 97.8744 274.865 98.7436 274.865 99.7546C274.865 100.766 275.071 101.652 275.479 102.415C275.907 103.178 276.46 103.763 277.136 104.171C277.83 104.561 278.56 104.756 279.326 104.756C280.109 104.756 280.841 104.561 281.517 104.171C282.192 103.781 282.737 103.213 283.146 102.468C283.574 101.705 283.787 100.819 283.787 99.8078ZM292.408 90.5494C291.857 90.5494 291.392 90.3632 291.018 89.9907C290.644 89.6183 290.457 89.1572 290.457 88.6073C290.457 88.0574 290.644 87.5963 291.018 87.2239C291.392 86.8514 291.857 86.6652 292.408 86.6652C292.942 86.6652 293.396 86.8514 293.77 87.2239C294.144 87.5963 294.331 88.0574 294.331 88.6073C294.331 89.1572 294.144 89.6183 293.77 89.9907C293.396 90.3632 292.942 90.5494 292.408 90.5494ZM293.903 92.4915V107.151H290.858V92.4915H293.903ZM304.287 107.39C302.898 107.39 301.642 107.08 300.52 106.459C299.398 105.82 298.517 104.934 297.876 103.798C297.235 102.646 296.914 101.315 296.914 99.8078C296.914 98.3179 297.243 96.9965 297.902 95.8437C298.562 94.6909 299.46 93.8039 300.6 93.1833C301.741 92.5626 303.013 92.2521 304.42 92.2521C305.828 92.2521 307.1 92.5626 308.24 93.1833C309.381 93.8039 310.279 94.6909 310.938 95.8437C311.598 96.9965 311.927 98.3179 311.927 99.8078C311.927 101.298 311.587 102.619 310.912 103.772C310.236 104.925 309.309 105.82 308.134 106.459C306.977 107.08 305.695 107.39 304.287 107.39ZM304.287 104.756C305.07 104.756 305.801 104.57 306.477 104.198C307.172 103.825 307.733 103.266 308.16 102.521C308.588 101.776 308.801 100.872 308.801 99.8078C308.801 98.7436 308.596 97.8478 308.187 97.1207C307.778 96.3758 307.233 95.8171 306.557 95.4446C305.882 95.0722 305.15 94.8859 304.367 94.8859C303.584 94.8859 302.852 95.0722 302.176 95.4446C301.517 95.8171 300.993 96.3758 300.6 97.1207C300.208 97.8478 300.013 98.7436 300.013 99.8078C300.013 101.386 300.413 102.61 301.215 103.479C302.035 104.331 303.058 104.756 304.287 104.756Z" fill="white"/>
<path d="M3.32853 112.858H0.657227C0.657227 113.807 1.16413 114.683 1.98773 115.16C2.81133 115.635 3.82707 115.639 4.65387 115.168L3.32853 112.858ZM18.8133 104.046L20.6165 102.083L19.1793 100.773L17.488 101.736L18.8133 104.046ZM26.2397 110.813L24.4365 112.776L27.0915 115.195L28.6481 111.964L26.2397 110.813ZM41.2505 79.6543L43.406 78.083L40.7715 74.4983L38.842 78.5036L41.2505 79.6543ZM52.4689 94.9188L50.3134 96.4901L52.8752 99.9758L54.8479 96.1291L52.4689 94.9188ZM74.9062 51.1712L76.9727 49.4853L74.3848 46.3388L72.5272 49.961L74.9062 51.1712ZM112.512 96.8955L110.445 98.5815L115.183 104.342V96.8955H112.512ZM112.512 3.64666H115.183V0.986206H112.512V3.64666ZM3.32853 3.64666V0.986206H0.657227V3.64666H3.32853ZM4.65387 115.168L20.1386 106.356L17.488 101.736L2.0032 110.548L4.65387 115.168ZM17.0101 106.009L24.4365 112.776L28.0428 108.85L20.6165 102.083L17.0101 106.009ZM28.6481 111.964L43.6589 80.8052L38.842 78.5036L23.8312 109.662L28.6481 111.964ZM39.0947 81.2258L50.3134 96.4901L54.6246 93.3476L43.406 78.083L39.0947 81.2258ZM54.8479 96.1291L77.285 52.3812L72.5272 49.961L50.0901 93.7086L54.8479 96.1291ZM72.8394 52.8569L110.445 98.5815L114.579 95.2099L76.9727 49.4853L72.8394 52.8569ZM115.183 96.8955V3.64666H109.841V96.8955H115.183ZM112.512 0.986206H3.32853V6.30711H112.512V0.986206ZM0.657227 3.64666V112.858H5.99983V3.64666H0.657227Z" fill="#FF3333"/>
<path d="M55.4528 67.3894L39.1097 43.397L3.54663 98.7295" stroke="#FF3333" stroke-width="4.82231"/>
<path d="M67.9226 85.5144L82.8127 107.337L89.4709 97.4505L112.956 114.33" stroke="#FF3333" stroke-width="4.82231"/>
<path d="M109.877 114.077C109.877 115.546 111.073 116.738 112.548 116.738C114.024 116.738 115.22 115.546 115.22 114.077H109.877ZM109.877 86.9692V114.077H115.22V86.9692H109.877Z" fill="#FF3333"/>
</svg>
